<?xml version="1.0" standalone="no"?>
<!DOCTYPE svg PUBLIC "-//W3C//DTD SVG 20010904//EN"
 "http://www.w3.org/TR/2001/REC-SVG-20010904/DTD/svg10.dtd">
<svg version="1.0" xmlns="http://www.w3.org/2000/svg"
 width="366.000000pt" height="366.000000pt" viewBox="0 0 366.000000 366.000000"
 preserveAspectRatio="xMidYMid meet">
<metadata>
Created by potrace 1.11, written by Peter Selinger 2001-2013
</metadata>
<g transform="translate(0.000000,366.000000) scale(0.100000,-0.100000)"
fill="#000000" stroke="none">
<path d="M1625 3265 c-238 -39 -464 -130 -630 -253 l-50 -37 78 -3 c64 -2 83
1 105 16 50 36 186 99 278 130 358 120 767 81 1087 -104 76 -44 80 -45 155
-42 l77 3 -85 56 c-161 108 -334 180 -518 219 -130 28 -374 35 -497 15z"/>
<path d="M1649 3119 c-155 -22 -333 -85 -470 -165 l-76 -44 -178 0 -179 0 -46
-49 c-26 -26 -55 -69 -65 -95 l-18 -46 -64 0 c-104 0 -145 -34 -189 -154 -22
-61 -22 -61 -69 -68 -32 -4 -57 -16 -77 -34 -31 -30 -61 -113 -73 -201 -7 -51
-8 -52 -42 -55 -60 -5 -77 -40 -81 -160 -2 -55 -1 -115 3 -135 8 -45 46 -83
82 -83 28 0 29 -2 46 -86 19 -91 44 -151 73 -175 9 -7 39 -16 67 -19 48 -5 50
-6 62 -45 18 -60 50 -117 85 -150 27 -26 39 -30 104 -33 l73 -4 27 -55 c14
-30 46 -75 69 -101 23 -26 69 -82 101 -125 168 -223 428 -390 723 -464 97 -25
126 -27 288 -28 199 0 280 13 435 67 236 84 468 255 612 452 29 39 70 91 93
116 23 25 50 66 61 92 l19 48 58 0 c32 0 73 6 92 14 41 17 87 85 112 163 17
53 17 53 58 53 79 0 116 50 145 189 17 83 18 86 49 92 48 10 69 35 82 98 14
70 6 198 -15 239 -15 29 -28 36 -80 44 -16 2 -22 17 -32 75 -18 105 -55 180
-98 198 -20 8 -48 15 -65 15 -26 0 -30 5 -46 53 -21 66 -48 109 -86 142 -26
21 -40 25 -100 25 l-70 0 -16 37 c-24 59 -71 122 -103 138 -22 12 -68 15 -201
15 l-171 0 -59 35 c-135 82 -303 144 -462 170 -98 16 -295 18 -388 4z m357
-94 c110 -18 224 -55 324 -105 97 -49 133 -78 55 -44 -82 36 -154 61 -260 91
-123 34 -366 43 -500 19 -107 -20 -269 -73 -357 -116 -44 -22 -56 -25 -38 -11
14 12 66 41 115 66 203 100 438 136 661 100z m-1066 -187 c-111 -119 -164
-781 -104 -1285 l7 -53 -101 0 c-87 0 -101 2 -106 18 -36 120 -45 729 -13 932
32 206 88 372 134 399 10 6 60 11 111 11 l93 0 -21 -22z m1977 0 c55 -61 99
-205 129 -423 24 -176 25 -597 1 -773 -9 -67 -19 -127 -22 -132 -3 -6 -51 -10
-107 -10 l-100 0 6 33 c28 161 38 625 17 832 -24 233 -61 392 -106 459 l-24
36 93 0 c83 0 95 -2 113 -22z m-1848 -27 c43 -43 90 -239 105 -436 4 -44 9
-99 12 -122 l5 -43 -38 0 -39 0 -10 80 c-11 79 -29 119 -46 102 -17 -17 -38
-119 -48 -241 -14 -161 1 -405 36 -569 15 -70 38 -40 50 67 l7 61 39 0 39 0
-6 -57 c-32 -292 -94 -465 -155 -433 -147 79 -191 1087 -64 1490 34 110 71
143 113 101z m1599 -8 c71 -103 112 -385 112 -779 0 -408 -44 -702 -118 -785
-32 -36 -52 -32 -81 15 -37 59 -91 309 -91 419 0 36 1 37 34 37 37 0 37 1 52
-100 15 -106 36 -82 61 72 24 148 24 515 0 618 -19 84 -39 114 -55 84 -8 -15
-32 -142 -32 -168 0 -3 -16 -6 -37 -6 l-36 0 7 101 c24 370 109 598 184 492z
m-2068 -138 c0 -3 -11 -61 -24 -128 -36 -180 -50 -376 -43 -611 4 -111 10
-222 13 -248 l7 -48 -81 0 -80 0 -6 33 c-49 264 -26 711 45 903 30 80 58 104
119 104 27 0 50 -2 50 -5z m2593 -25 c53 -62 94 -246 106 -475 8 -142 -1 -396
-17 -485 l-8 -45 -83 -3 -83 -3 6 28 c4 15 10 105 15 198 14 265 -11 611 -54
752 -8 26 -15 51 -15 56 0 4 24 7 54 7 48 0 57 -4 79 -30z m-1219 -90 c47 -17
60 -63 51 -185 -6 -96 -9 -108 -27 -113 -18 -4 -20 -11 -16 -58 4 -49 3 -53
-19 -59 -36 -9 -92 5 -103 25 -6 10 -13 90 -16 177 -6 151 -6 159 15 185 19
24 36 32 78 37 6 0 23 -3 37 -9z m236 -35 c16 -8 34 -24 40 -34 11 -22 13 -91
4 -168 l-7 -53 -78 0 c-75 0 -79 1 -85 25 -12 48 0 189 19 218 20 31 61 36
107 12z m-446 -37 c12 -17 16 -50 16 -145 0 -119 -9 -170 -33 -185 -7 -4 -31
-8 -54 -8 -60 0 -69 19 -83 172 -14 166 -4 186 97 187 32 1 45 -4 57 -21z
m-232 -45 c10 -12 17 -50 21 -116 6 -96 -1 -143 -26 -159 -21 -13 -84 -9 -97
7 -7 8 -19 65 -27 127 l-16 112 27 23 c33 28 96 31 118 6z m-1196 -32 c-20
-129 -28 -269 -24 -448 l4 -203 -47 0 c-35 0 -49 4 -54 18 -5 9 -10 105 -13
212 -4 207 11 347 45 413 20 39 30 47 67 47 28 0 28 -1 22 -39z m3075 4 c34
-59 53 -189 54 -370 0 -93 -4 -196 -8 -227 l-8 -58 -55 0 -54 0 7 28 c20 76 4
531 -23 637 -6 25 -5 26 32 23 30 -2 42 -9 55 -33z m-993 -231 c21 -24 22 -34
22 -168 l0 -143 -51 -83 c-89 -147 -171 -261 -198 -274 -49 -25 -96 -26 -246
-10 -141 15 -157 15 -268 -1 -138 -21 -201 -17 -252 15 -49 30 -82 102 -93
202 l-8 76 29 6 c39 8 256 8 296 0 44 -9 79 -46 93 -98 l12 -45 26 52 c42 84
123 124 233 114 48 -4 70 -13 120 -48 l61 -43 -32 57 c-18 31 -32 61 -32 67 0
17 69 120 83 125 6 2 31 9 54 15 22 5 51 18 63 28 21 17 19 18 -77 14 -149 -6
-192 20 -209 127 l-6 40 143 3 c186 4 209 2 237 -28z m-2263 -149 l0 -126 -30
3 c-27 3 -30 8 -38 48 -8 44 -2 154 9 185 4 8 18 15 33 15 l26 0 0 -125z
m1236 99 c35 -33 100 -42 151 -21 34 14 40 14 75 -4 48 -24 108 -24 157 0 38
20 38 20 67 -1 22 -16 43 -21 97 -21 66 0 69 -1 90 -33 l22 -34 -491 0 -491 0
7 48 c14 101 -1 92 153 92 133 0 137 -1 163 -26z m1203 -11 c3 -21 6 -53 6
-70 l0 -33 -55 0 -55 0 0 70 0 70 49 0 c48 0 48 0 55 -37z m976 11 c11 -28 13
-166 4 -201 -5 -17 -14 -23 -35 -23 l-29 0 0 125 0 125 25 0 c18 0 28 -7 35
-26z m-1470 -180 c0 -3 -5 -14 -10 -25 -10 -18 -27 -19 -504 -19 -520 0 -506
-1 -506 41 0 5 207 9 510 9 281 0 510 -3 510 -6z m492 -19 c-4 -22 -9 -25 -48
-25 -40 0 -44 2 -44 25 0 23 3 25 49 25 46 0 48 -1 43 -25z m-2258 -257 c13
-51 8 -59 -31 -56 -28 2 -41 9 -49 27 -18 36 -7 51 36 51 31 0 39 -4 44 -22z
m3083 6 c3 -8 0 -26 -7 -40 -11 -19 -21 -24 -53 -24 -32 0 -38 3 -33 16 3 9 6
27 6 40 0 21 4 24 40 24 28 0 43 -5 47 -16z m-2851 -131 c3 -16 12 -53 20 -84
20 -80 21 -79 -39 -79 -61 0 -74 10 -106 80 -23 51 -27 96 -8 103 6 3 38 6 69
6 55 1 58 0 64 -26z m2673 13 c19 -23 -14 -120 -54 -160 -22 -21 -130 -23
-122 -2 3 8 13 50 23 95 l17 81 62 0 c42 0 66 -5 74 -14z m-2377 -146 c25
-101 51 -172 74 -199 l26 -31 -90 0 c-76 0 -93 3 -116 21 -32 25 -58 75 -80
150 -26 90 -17 98 103 96 l75 -2 8 -35z m2114 30 c24 -9 26 -14 21 -48 -8 -59
-46 -149 -77 -182 -27 -29 -30 -30 -124 -30 l-97 0 26 28 c23 24 62 126 80
210 l7 32 68 0 c38 0 81 -5 96 -10z m-1165 -197 c1 -214 15 -321 19 -148 l3
100 11 -110 11 -110 22 204 c12 112 24 205 27 208 2 3 38 2 80 -2 91 -9 91
-10 88 -143 -1 -53 6 -151 17 -225 31 -212 32 -222 22 -249 -5 -15 -20 -36
-33 -48 l-23 -22 40 7 c67 12 239 72 317 111 91 46 155 87 233 148 l60 47 -62
-60 c-236 -228 -602 -350 -932 -312 -248 29 -445 111 -636 264 -110 88 -138
124 -40 50 146 -110 307 -190 455 -228 36 -9 74 -18 85 -21 11 -3 1 6 -23 21
-75 46 -83 82 -57 260 8 55 15 150 16 210 0 61 6 128 13 150 11 37 15 40 56
47 25 3 61 7 81 7 l37 1 24 -77 24 -78 12 88 c13 96 16 107 38 107 12 0 14
-33 15 -197z"/>
<path d="M2110 2085 c19 -21 33 -25 74 -24 l51 0 -55 15 c-30 8 -59 19 -64 24
-22 22 -28 8 -6 -15z"/>
<path d="M1400 1636 c0 -24 36 -69 70 -86 41 -21 151 -26 215 -10 27 7 26 8
-16 9 -26 0 -61 4 -80 8 -28 5 -30 7 -14 14 18 7 17 8 -5 9 -14 0 -45 9 -69
20 -49 23 -55 24 -46 10 11 -18 -8 -11 -32 12 -13 12 -23 18 -23 14z"/>
<path d="M2185 1577 c-11 -6 -45 -19 -75 -28 l-55 -18 38 0 c38 -1 102 22 113
41 10 15 0 17 -21 5z"/>
<path d="M510 1260 c0 -21 70 -148 129 -236 401 -595 1192 -803 1836 -482 283
141 559 426 670 691 l15 37 -50 0 -50 0 -26 -52 c-79 -158 -243 -353 -389
-462 -160 -120 -346 -205 -545 -247 -138 -29 -381 -32 -513 -5 -259 51 -514
184 -700 364 -80 78 -194 231 -242 324 l-40 78 -47 0 c-27 0 -48 -5 -48 -10z"/>
</g>
</svg>
